<svg width="68" height="68" viewBox="0 0 68 68" fill="none" xmlns="http://www.w3.org/2000/svg">
<path fill-rule="evenodd" clip-rule="evenodd" d="M38.9805 42.5H29.0196H29.0195L20.5195 34H8.5V4.25C8.5 1.90295 10.403 0 12.75 0H42.5C43.6268 0 44.708 0.448243 45.5049 1.24512L58.2549 13.9951C59.0518 14.792 59.5 15.8732 59.5 17V34H47.4805L38.9805 42.5ZM55.25 17L42.5 4.25V12.75C42.5 15.097 44.4027 17 46.75 17H55.25ZM40.7402 46.75L49.2402 38.25H68V61.625C68 65.1404 65.1404 68 61.625 68H6.375C2.85962 68 0 65.1404 0 61.625V38.25H18.7598L27.2598 46.75H40.7402Z" fill="#E4E4E4"/>
</svg>
