<svg width="140" height="68" viewBox="0 0 140 68" fill="none" xmlns="http://www.w3.org/2000/svg">
<path d="M98.9895 36.7119H92.7534C93.4055 38.4878 93.7381 40.3639 93.7361 42.2544V65.6845C93.7365 66.4734 93.6013 67.2566 93.3361 68.0002H103.645C105.496 67.9981 107.271 67.2659 108.581 65.9641C109.89 64.6624 110.627 62.8974 110.629 61.0564V48.2837C110.625 45.2158 109.397 42.2747 107.216 40.1053C105.034 37.936 102.075 36.7156 98.9895 36.7119Z" fill="#E4E4E4"/>
<path d="M46.891 42.2559C46.8894 40.3648 47.2226 38.4882 47.8753 36.7119H41.6392C38.5534 36.7156 35.5951 37.936 33.4132 40.1053C31.2312 42.2747 30.0038 45.2158 30 48.2837V61.0564C30.0021 62.8974 30.7386 64.6624 32.0479 65.9641C33.3572 67.2659 35.1325 67.9981 36.9841 68.0002H47.2926C47.0271 67.2572 46.8912 66.4746 46.891 65.6861V42.2559Z" fill="#E4E4E4"/>
<path d="M77.4419 30.6836H63.187C60.1013 30.6873 57.143 31.9077 54.961 34.077C52.7791 36.2464 51.5516 39.1875 51.5479 42.2554V65.6856C51.5479 66.2993 51.7931 66.8879 52.2296 67.3219C52.6661 67.7558 53.2581 67.9997 53.8754 67.9997H86.7535C87.3708 67.9997 87.9628 67.7558 88.3993 67.3219C88.8358 66.8879 89.0811 66.2993 89.0811 65.6856V42.2554C89.0773 39.1875 87.8498 36.2464 85.6679 34.077C83.4859 31.9077 80.5276 30.6873 77.4419 30.6836Z" fill="#E4E4E4"/>
<path d="M70.3142 0C67.5465 0.000619328 64.8411 0.817113 62.5401 2.34625C60.2391 3.87538 58.4458 6.04849 57.387 8.59083C56.3281 11.1332 56.0512 13.9306 56.5913 16.6293C57.1314 19.3281 58.4643 21.8071 60.4213 23.7528C62.3784 25.6985 64.8718 27.0236 67.5862 27.5606C70.3007 28.0976 73.1144 27.8223 75.6715 26.7696C78.2286 25.7169 80.4144 23.9339 81.9524 21.6463C83.4905 19.3586 84.3117 16.6689 84.3123 13.9172C84.3078 10.2275 82.8315 6.69028 80.2073 4.08129C77.5831 1.47229 74.0253 0.00455746 70.3142 0Z" fill="#E4E4E4"/>
<path d="M45.7349 12.9717C43.666 12.9726 41.6438 13.5834 39.9239 14.7267C38.204 15.8701 36.8637 17.4948 36.0724 19.3953C35.2811 21.2959 35.0743 23.3871 35.4781 25.4045C35.882 27.4219 36.8784 29.275 38.3413 30.7295C39.8043 32.184 41.6682 33.1746 43.6973 33.5761C45.7265 33.9776 47.8298 33.772 49.7414 32.9853C51.6531 32.1986 53.2872 30.866 54.4372 29.1561C55.5872 27.4462 56.2015 25.4356 56.2025 23.3787C56.1991 20.6196 55.0953 17.9744 53.1329 16.0235C51.1706 14.0725 48.5101 12.975 45.7349 12.9717Z" fill="#E4E4E4"/>
<path d="M95.4581 12.9717C93.3891 12.9726 91.3669 13.5834 89.647 14.7267C87.9272 15.8701 86.5869 17.4948 85.7955 19.3953C85.0042 21.2959 84.7974 23.3871 85.2013 25.4045C85.6051 27.4219 86.6015 29.275 88.0645 30.7295C89.5275 32.184 91.3913 33.1746 93.4205 33.5761C95.4496 33.9776 97.5529 33.772 99.4646 32.9853C101.376 32.1986 103.01 30.866 104.16 29.1561C105.31 27.4462 105.925 25.4356 105.926 23.3787C105.922 20.6196 104.818 17.9744 102.856 16.0235C100.894 14.0725 98.2332 12.975 95.4581 12.9717Z" fill="#E4E4E4"/>
</svg>
