<svg width="68" height="68" viewBox="0 0 68 68" fill="none" xmlns="http://www.w3.org/2000/svg">
<path fill-rule="evenodd" clip-rule="evenodd" d="M55.8571 4.85714H65.5714C66.2155 4.85714 66.8332 5.11301 67.2887 5.56846C67.7441 6.0239 68 6.64162 68 7.28571V21.8571C68 22.5012 67.7441 23.119 67.2887 23.5744C66.8332 24.0298 66.2155 24.2857 65.5714 24.2857H63.1429V65.5714C63.1429 66.2155 62.887 66.8332 62.4315 67.2887C61.9761 67.7441 61.3584 68 60.7143 68H7.28571C6.64162 68 6.0239 67.7441 5.56846 67.2887C5.11301 66.8332 4.85714 66.2155 4.85714 65.5714V24.2857H2.42857C1.78447 24.2857 1.16676 24.0298 0.711312 23.5744C0.255866 23.119 0 22.5012 0 21.8571V7.28571C0 6.64162 0.255866 6.0239 0.711312 5.56846C1.16676 5.11301 1.78447 4.85714 2.42857 4.85714H12.1429V2.42857C12.1429 1.78447 12.3987 1.16676 12.8542 0.711312C13.3096 0.255866 13.9273 0 14.5714 0C15.2155 0 15.8332 0.255866 16.2887 0.711312C16.7441 1.16676 17 1.78447 17 2.42857V4.85714H51V2.42857C51 1.78447 51.2559 1.16676 51.7113 0.711312C52.1668 0.255866 52.7845 0 53.4286 0C54.0727 0 54.6904 0.255866 55.1458 0.711312C55.6013 1.16676 55.8571 1.78447 55.8571 2.42857V4.85714ZM9.71429 63.1429H58.2857V24.2857H9.71429V63.1429ZM42.7819 43.5337C43.0778 43.6546 43.3947 43.7159 43.7143 43.714H43.8843C44.2322 43.6889 44.5707 43.5892 44.8766 43.4215C45.1825 43.2539 45.4487 43.0223 45.6571 42.7426L52.9429 33.0283C53.1342 32.7732 53.2734 32.4828 53.3526 32.1739C53.4317 31.8649 53.4493 31.5434 53.4042 31.2277C53.3591 30.912 53.2522 30.6082 53.0897 30.3338C52.9272 30.0594 52.7123 29.8196 52.4571 29.6283C52.202 29.4369 51.9117 29.2977 51.6027 29.2186C51.2938 29.1394 50.9723 29.1219 50.6565 29.167C50.0189 29.2581 49.4436 29.5987 49.0571 30.114L43.4471 37.594L40.5814 34.704C40.355 34.4776 40.0862 34.298 39.7903 34.1754C39.4945 34.0529 39.1774 33.9898 38.8571 33.9898C38.5369 33.9898 38.2198 34.0529 37.924 34.1754C37.6281 34.298 37.3593 34.4776 37.1329 34.704C36.9064 34.9304 36.7268 35.1993 36.6043 35.4951C36.4817 35.791 36.4186 36.1081 36.4186 36.4283C36.4186 36.7485 36.4817 37.0656 36.6043 37.3615C36.7268 37.6573 36.9064 37.9261 37.1329 38.1526L41.99 43.0097C42.2169 43.2348 42.486 43.4129 42.7819 43.5337ZM19.4286 38.8569H26.7143C27.3584 38.8569 27.9761 38.601 28.4315 38.1456C28.887 37.6901 29.1429 37.0724 29.1429 36.4283C29.1429 35.7842 28.887 35.1665 28.4315 34.711C27.9761 34.2556 27.3584 33.9997 26.7143 33.9997H19.4286C18.7845 33.9997 18.1668 34.2556 17.7113 34.711C17.2559 35.1665 17 35.7842 17 36.4283C17 37.0724 17.2559 37.6901 17.7113 38.1456C18.1668 38.601 18.7845 38.8569 19.4286 38.8569ZM19.4286 53.4283H26.7143C27.3584 53.4283 27.9761 53.1724 28.4315 52.717C28.887 52.2615 29.1429 51.6438 29.1429 50.9997C29.1429 50.3556 28.887 49.7379 28.4315 49.2825C27.9761 48.827 27.3584 48.5712 26.7143 48.5712H19.4286C18.7845 48.5712 18.1668 48.827 17.7113 49.2825C17.2559 49.7379 17 50.3556 17 50.9997C17 51.6438 17.2559 52.2615 17.7113 52.717C18.1668 53.1724 18.7845 53.4283 19.4286 53.4283ZM41.2857 53.4283H48.5714C49.2155 53.4283 49.8332 53.1724 50.2887 52.717C50.7441 52.2615 51 51.6438 51 50.9997C51 50.3556 50.7441 49.7379 50.2887 49.2825C49.8332 48.827 49.2155 48.5712 48.5714 48.5712H41.2857C40.6416 48.5712 40.0239 48.827 39.5685 49.2825C39.113 49.7379 38.8571 50.3556 38.8571 50.9997C38.8571 51.6438 39.113 52.2615 39.5685 52.717C40.0239 53.1724 40.6416 53.4283 41.2857 53.4283Z" fill="#E4E4E4"/>
</svg>
