<svg width="140" height="68" viewBox="0 0 140 68" fill="none" xmlns="http://www.w3.org/2000/svg">
<path d="M107.466 64.9294L104.012 54.5686C103.816 53.9776 103.88 53.3422 104.165 52.7884C106.76 47.7457 107.832 41.7919 106.71 35.5162C104.988 25.8958 97.9431 17.9017 88.806 14.8359C91.1636 20.5301 91.8826 26.8612 90.7048 33.1412C88.3119 45.9054 78.0908 56.026 65.2716 58.325C63.6122 58.6227 61.9357 58.7676 60.272 58.8099C64.1652 63.0102 69.3618 65.9961 75.1587 67.0357C81.3958 68.1543 87.3218 67.1131 92.3494 64.5564C92.901 64.2759 93.5319 64.2134 94.1192 64.4091L104.52 67.8759C106.341 68.4831 108.073 66.7506 107.466 64.9294Z" fill="#E4E4E4"/>
<path d="M54.2774 0.482595C43.4738 2.49003 34.8163 11.2673 32.8803 22.0838C31.7574 28.3595 32.8293 34.3133 35.4248 39.356C35.71 39.9097 35.7742 40.5452 35.5775 41.1362L32.1235 51.497C31.5166 53.3182 33.249 55.0506 35.0702 54.4437L45.4706 50.9769C46.058 50.7812 46.6892 50.8436 47.2406 51.1242C52.268 53.6809 58.1938 54.7221 64.4311 53.6035C75.2211 51.6685 83.976 43.0322 85.9959 32.2578C89.5548 13.2772 73.2522 -3.04326 54.2774 0.482595ZM61.1554 35.4332H47.7225C46.3976 35.4332 45.3237 34.3595 45.3237 33.0344C45.3237 31.7095 46.3976 30.6356 47.7225 30.6356H61.1554C62.4805 30.6356 63.5542 31.7095 63.5542 33.0344C63.5542 34.3595 62.4805 35.4332 61.1554 35.4332ZM70.7504 25.8382H47.7223C46.3974 25.8382 45.3235 24.7645 45.3235 23.4394C45.3235 22.1145 46.3974 21.0406 47.7223 21.0406H70.7502C72.0753 21.0406 73.149 22.1145 73.149 23.4394C73.1492 24.7645 72.0755 25.8382 70.7504 25.8382Z" fill="#E4E4E4"/>
</svg>
