<svg width="45" height="67" viewBox="0 0 45 67" fill="none" xmlns="http://www.w3.org/2000/svg">
<path fill-rule="evenodd" clip-rule="evenodd" d="M23.428 46.5375H21.4093C14.3968 46.5375 8.7124 40.8531 8.7124 33.8406V12.6969C8.7124 5.68437 14.3968 0 21.4093 0H23.428C30.4405 0 36.1249 5.68437 36.1249 12.6969V33.8406C36.1249 40.8531 30.4405 46.5375 23.428 46.5375ZM27.8905 11.3687H16.9468C15.8312 11.3687 14.928 12.2719 14.928 13.3875C14.928 14.5031 15.8312 15.4062 16.9468 15.4062H27.8905C29.0062 15.4062 29.9093 14.5031 29.9093 13.3875C29.9093 12.2719 29.0062 11.3687 27.8905 11.3687ZM27.8905 21.25H16.9468C15.8312 21.25 14.928 22.1531 14.928 23.2687C14.928 24.3844 15.8312 25.2875 16.9468 25.2875H27.8905C29.0062 25.2875 29.9093 24.3844 29.9093 23.2687C29.9093 22.1531 29.0062 21.25 27.8905 21.25ZM27.8905 31.1312H16.9468C15.8312 31.1312 14.928 32.0344 14.928 33.15C14.928 34.2656 15.8312 35.1688 16.9468 35.1688H27.8905C29.0062 35.1688 29.9093 34.2656 29.9093 33.15C29.9093 32.0344 29.0062 31.1312 27.8905 31.1312ZM42.2875 20.7188C42.9781 20.7188 43.6156 20.9844 44.0938 21.4625C44.5719 21.9406 44.8375 22.5781 44.7844 23.2687V32.8312C44.7844 38.5156 42.6062 43.9875 38.7281 48.1313C35.0625 52.0625 30.175 54.5062 24.9156 55.0906V61.0938H31.8219C33.2031 61.0938 34.3719 62.2625 34.3719 63.6438C34.3719 65.025 33.2031 66.1938 31.8219 66.1938H12.9625C11.5813 66.1938 10.4125 65.025 10.4125 63.6438C10.4125 62.2625 11.5813 61.0938 12.9625 61.0938H19.8688V55.0906C14.6094 54.5062 9.72188 52.0625 6.05625 48.1313C2.125 43.9344 0 38.5156 0 32.8312V23.2687C0 21.8875 1.16875 20.7188 2.55 20.7188C3.93125 20.7188 5.1 21.8875 5.1 23.2687V32.8312C5.1 42.3937 12.8563 50.15 22.4188 50.15C31.9813 50.15 39.7375 42.3937 39.7375 32.8312V23.2687C39.7375 21.8875 40.9063 20.7188 42.2875 20.7188Z" fill="#E4E4E4"/>
</svg>
