<svg width="45" height="70" viewBox="0 0 45 70" fill="none" xmlns="http://www.w3.org/2000/svg">
<path d="M44.0938 23.0134C43.6156 22.5207 42.9781 22.2471 42.2875 22.2471C40.9063 22.2471 39.7375 23.4512 39.7375 24.8743V34.7266C39.7375 44.5789 31.9813 52.5702 22.4188 52.5702C12.8563 52.5702 5.1 44.5789 5.1 34.7266V24.8743C5.1 23.4512 3.93125 22.2471 2.55 22.2471C1.16875 22.2471 0 23.4512 0 24.8743V34.7266C0 40.5832 2.125 46.1662 6.05625 50.4903C9.72188 54.5406 14.6094 57.0584 19.8688 57.6605V63.8456H12.9625C11.5813 63.8456 10.4125 65.0497 10.4125 66.4728C10.4125 67.8959 11.5813 69.1001 12.9625 69.1001H31.8219C33.2031 69.1001 34.3719 67.8959 34.3719 66.4728C34.3719 65.0497 33.2031 63.8456 31.8219 63.8456H24.9156V57.6605C30.175 57.0584 35.0625 54.5406 38.7281 50.4903C42.6062 46.2209 44.7844 40.5832 44.7844 34.7266V24.8743C44.8375 24.1628 44.5719 23.506 44.0938 23.0134Z" fill="#E4E4E4"/>
<path d="M21.4093 48.8481H23.428C30.4405 48.8481 36.1249 42.9915 36.1249 35.7665V13.982C36.1249 6.75702 30.4405 0.900391 23.428 0.900391H21.4093C14.3968 0.900391 8.7124 6.75702 8.7124 13.982V35.7665C8.7124 42.9915 14.3968 48.8481 21.4093 48.8481ZM16.9468 12.6136H27.8905C29.0062 12.6136 29.9093 13.5441 29.9093 14.6936C29.9093 15.843 29.0062 16.7735 27.8905 16.7735H16.9468C15.8312 16.7735 14.928 15.843 14.928 14.6936C14.928 13.5441 15.8312 12.6136 16.9468 12.6136ZM16.9468 22.7943H27.8905C29.0062 22.7943 29.9093 23.7248 29.9093 24.8743C29.9093 26.0237 29.0062 26.9542 27.8905 26.9542H16.9468C15.8312 26.9542 14.928 26.0237 14.928 24.8743C14.928 23.7248 15.8312 22.7943 16.9468 22.7943ZM16.9468 32.975H27.8905C29.0062 32.975 29.9093 33.9055 29.9093 35.0549C29.9093 36.2044 29.0062 37.1349 27.8905 37.1349H16.9468C15.8312 37.1349 14.928 36.2044 14.928 35.0549C14.928 33.9055 15.8312 32.975 16.9468 32.975Z" fill="#E4E4E4"/>
</svg>
